# xmcd
#
# Track frame offsets: 
#        150
#        16666
#        34930
#        50563
#        84533
#        104740
#        125981
#        143167
#        162749
#        184925
#        203625
#        230164
#        250773
#        270321
#        291269
#        311727
#        330559
#
# Disc length: 4795 seconds
#
# Revision: 2
# Processed by: cddbd v1.5.2PL0 Copyright (c) Steve Scherf et al.
# Submitted via: ExactAudioCopy v1.3
#
DISCID=0212b911
DTITLE=Various Artist - Akella Presents - vol.43 - Blues-Rock  CD1
DYEAR=2014
DGENRE=Blues-Rock
TTITLE0=Ryan Reid - The Perfect Drug
TTITLE1=The M.O.B - Sharp Dressed Man
TTITLE2=Preacher Stone - Come On In
TTITLE3=Dudley Taft - Have You Ever Loved A Woman
TTITLE4=Ben Granfelt Band - Check Up From The Neck Up
TTITLE5=The Union - Obsession
TTITLE6=Dr. Wu' and Friends - Voodoo Doll (Hendrix Slight Revisit)
TTITLE7=Kenny Wayne Shepherd - Dark Side Of Love
TTITLE8=Dan Patlansky - Insufficient Man
TTITLE9=Scotty Bratcher - Mind At Ease
TTITLE10=Keith Scott - Got to Have It
TTITLE11=The Rex Carroll Band - Find A Way
TTITLE12=Black Mountain Prophet - I'm Ready
TTITLE13=Highway Ryders - Hornets Nest
TTITLE14=Leslie West - Blues Before Sunrise
TTITLE15=The Gentlemen's Blues Club - Shotgun Wedding
TTITLE16=Innes Sibun - As The Years Go Passing By
EXTD=
EXTT0=
EXTT1=
EXTT2=
EXTT3=
EXTT4=
EXTT5=
EXTT6=
EXTT7=
EXTT8=
EXTT9=
EXTT10=
EXTT11=
EXTT12=
EXTT13=
EXTT14=
EXTT15=
EXTT16=
PLAYORDER=
